<svg viewBox="0 0 411 199" xmlns="http://www.w3.org/2000/svg"><clipPath id="a"><path d="M.89.49H257V199H.89z"/></clipPath><path d="M-3.1-4.28h416.96v208.59H-3.1z" fill="#d1aec9"/><g clip-path="url(#a)"><path d="M200 137.4h-.08a22.47 22.47 0 01-13.51-13.75H200z" fill="#9f663f"/><path d="M205 87.3v42.06a5.49 5.49 0 01-.09.9 5.08 5.08 0 01-5.06 4h-13.47a5.07 5.07 0 01-5-4 4.59 4.59 0 01-.1-.9V87.3a5 5 0 015.15-4.93h13.44A5 5 0 01205 87.3z" fill="#7c2e6a"/><path d="M181.23 87.83h23.73v41.36h-23.73z" fill="#fff"/><g fill="#9f663f"><path d="M199.1 138.28v67.75l24.37-6.22-11.41-61.53zm3.15-33.11a5.66 5.66 0 010-8l7.34 7.35a8 8 0 012.34 5.6l.13 28.16h-13c-1.35-9.4-4.09-10.48-.55-19.29L205 108z"/><rect height="11.59" rx="2.77" transform="rotate(135 181.788 106.276)" width="5.54" x="179.02" y="100.48"/><rect height="11.59" rx="2.77" transform="rotate(135 182.616 99.483)" width="5.54" x="179.85" y="93.69"/><rect height="9.49" rx="2.83" transform="rotate(135 180.455 112.677)" width="5.65" x="177.63" y="107.93"/><rect height="6.62" rx="2.83" transform="rotate(135 180.454 118.165)" width="5.65" x="177.63" y="114.86"/><path d="M88.12 122.82l9.3-30.24-2.44-9h38.61l-1.17 4.32-6.19 23.2c-1.58 5.9 3.13 12 9 12.88zM135.38 77c3.44 0 6.63-2.21 8.4-5.81l.24-.5a6.49 6.49 0 00.59-1.79c.53-3.39-1.59-6.73-4.58-6.73-2.56 0-4.65 2.55-4.65 5.68z"/></g><path d="M93.29 77c-3.44 0-6.63-2.21-8.39-5.81l-.24-.5a6.18 6.18 0 01-.59-1.79c-.53-3.39 1.58-6.73 4.57-6.73 2.57 0 4.65 2.55 4.65 5.68z" fill="#f0c5c8"/><path d="M140.7 53.39a32.08 32.08 0 01-.61 6.25 31.93 31.93 0 01-1.18 4.36 29.22 29.22 0 01-8.67 12.75 24.27 24.27 0 01-31.77 0A29.19 29.19 0 0189.79 64a33 33 0 01-1.17-4.29 32.08 32.08 0 01-.6-6.25c0-16.17 11.79-29.28 26.33-29.28s26.35 13.04 26.35 29.21z" fill="#392151"/><path d="M114.35 76.44v7.14H95.12l-1.86-6.84-3.47-12.78-1.17-4.29v-.03z" fill="#162d38"/><path d="M140.09 59.64v.03l-1.18 4.32-3.47 12.75-1.86 6.84h-19.23v-7.14z" fill="#392151"/><path d="M94.98 83.58l.01.03 2.43 8.97-9.3 30.24h34.98l9.3-34.89 1.18-4.32.01-.03z" fill="#9f663f"/><path d="M133.71 77l-.13 6.63c-2.26 8.37-4.38 16.54-10.33 22.35a107.08 107.08 0 01-8.55 6.85 50.62 50.62 0 01-30.23 10h-25c-11 0-19.38-10.32-16.53-20.91.11-.4.23-.8.36-1.19 2.64-7.89 9-14 15.65-18.92s14-9.13 20-14.94 8.07-14 10.32-22.34L119.32 51l-4.14 26z" fill="#392151"/><path d="M118.63 159l31.56 38.91 31.91 24.55c18 18 46.65-6.63 31.09-26.71-.52-.66-1.08-1.32-1.68-1.95l-.46-.46-63.38-63.38z" fill="#fff"/><path d="M157.19 154.31v83.25h-93.9l-11.74-77.64c-1.92-12.72 2.55-25.83 11.64-32.54a22.57 22.57 0 0113.46-4.56h54.59c14.33 0 25.95 14.1 25.95 31.49zm64.24 45.04a10.67 10.67 0 01-7.59-3.18l-2-2 3.69 12.83z" fill="#fff"/></g></svg>