<svg viewBox="0 0 411 199" xmlns="http://www.w3.org/2000/svg"><clipPath id="a"><path d="M.3.46h410.4V199H.3z"/></clipPath><path d="M-4.11-3.35h419.22v205.38H-4.11z" fill="#fbbebe"/><g clip-path="url(#a)"><g fill="#c38358"><rect height="41.3" rx="5.85" transform="matrix(.5 -.87 .87 .5 -92.9 141.51)" width="11.71" x="70.24" y="130.56"/><rect height="41.3" rx="5.85" transform="rotate(-60 90.713 151.62)" width="11.71" x="84.86" y="130.97"/><rect height="41.3" rx="5.85" transform="rotate(-60 105.668 149.018)" width="11.71" x="99.82" y="128.37"/><rect height="41.3" rx="5.85" transform="rotate(-60 117.616 145.143)" width="11.71" x="111.76" y="124.49"/><path d="M122.91 114.93a3.08 3.08 0 00-4-2.42l-7.47 2.34a15.34 15.34 0 01-5.77 0l-15.27-3a25 25 0 00-12.66.82l-6.32 2.12a36.79 36.79 0 00-9.1 4.51 44.21 44.21 0 01-24.85 7.7H-19.3v33.51l63.89-10.91a45.31 45.31 0 0116.78.29l10.5 2.11 36.64-10.19-.78-9.16-9.66-4.39h.07a12.25 12.25 0 015.73-.51 21.35 21.35 0 0010-.78l2.14-.72a10.27 10.27 0 006.9-11.32z"/></g><path d="M37.44 127.01l2.22 30.42-73.68 13.31 1.28-44.42z" fill="#392151"/><path d="M103.38 58.67h106.34v104.71H103.38z" fill="#fff"/><path d="M144.22 59h-12.05V44.95l12.05-12.11zm27.91 0h12.05V44.95l-12.05-12.11z" fill="#fff"/><path d="M144.22 32.84h27.91v11.97h-27.85z" fill="#ffe1e1"/><rect fill="#9f663f" height="41.3" rx="5.85" transform="rotate(120 82.777 160.451)" width="11.71" x="76.92" y="139.8"/><rect fill="#9f663f" height="41.3" rx="5.85" transform="rotate(120 97.385 160.865)" width="11.71" x="91.53" y="140.21"/><rect fill="#9f663f" height="41.3" rx="5.85" transform="matrix(-.5 .87 -.87 -.5 305.58 140.1)" width="11.71" x="106.49" y="137.61"/><rect fill="#9f663f" height="41.3" rx="5.85" transform="rotate(120 124.294 154.381)" width="11.71" x="118.44" y="133.73"/><path d="M129.58 124.17a3.08 3.08 0 00-4-2.41l-7.47 2.33a15.5 15.5 0 01-5.76 0l-15.27-3a24.86 24.86 0 00-12.66.83l-6.3 2.08a36.9 36.9 0 00-9.12 4.54 44.26 44.26 0 01-24.88 7.66h-56.75v33.51l63.9-10.91a45.25 45.25 0 0116.77.29l10.51 2.17 36.64-10.18-.79-9.17-9.65-4.39h.06a12.29 12.29 0 015.74-.51 21.36 21.36 0 0010-.78l2.14-.71a10.28 10.28 0 006.89-11.35z" fill="#9f663f"/><path d="M32.65 135.91l3.51 36.75-73.69 13.31v-50.75z" fill="#392151"/><path d="M67.24 72.02l3.01 8.86 8.86 3.01-8.86 3.01-3.01 8.86-3.01-8.86-8.86-3.01 8.86-3.01zm179.2-17.5l3.01 8.86 8.86 3.01-8.86 3.01-3.01 8.87-3.01-8.87-8.87-3.01 8.87-3.01z" fill="#fff"/><path d="M309.56 127.5l1.06-.7a15.37 15.37 0 017.68-2.52l3.74-.2a13.66 13.66 0 008.87-3.92l2.27-2.23A28.62 28.62 0 01349 110l11.32-1.71L352.4 145l-34.32 16.72 10.69-19.14-.11-6.15a3.46 3.46 0 00-3.56-3.4l-13.65.41a3.25 3.25 0 01-1.89-5.94z" fill="#c38358"/><path d="M306.24 147l1.82-1a21.32 21.32 0 018.52-2.58l17.15-1.46a11 11 0 007.65-4.08l3.92-4.91a8.57 8.57 0 001.86-6l-.1-1.53a17.26 17.26 0 014.64-13l1-1.1a12 12 0 0110.17-3.7l3 .35a16.3 16.3 0 0010-2l37.4-21.3L426.54 107l-11 15.52L382 128.7a27.63 27.63 0 00-14.91 8l-19 19.74a9.81 9.81 0 01-7.07 3 10.94 10.94 0 00-7.63 3.11 14.63 14.63 0 01-9.31 4.13l-24.29 1.54a1.51 1.51 0 01-.91-2.78l.23-.15 20.6-5.44L300 157a1.16 1.16 0 01-.16-2.26l3.71-1.14a9.93 9.93 0 012.17-.43L330 151l-23.16-1.43a1.39 1.39 0 01-.6-2.57z" fill="#9f663f"/><path d="M367.89 129.72l4.54-.26s3.76 9.28 10.72 7.67-2.77 3.35-2.77 3.35l-7.69-2.91s-3.69-4.16-4.8-7.85z" fill="#fff"/><path d="M376.89 100.43c-5.64.65-9.77 7.07-10.6 15.45 1-6.14 4.16-10.71 8.44-11.2 5.8-.67 11.38 6.41 12.46 15.81s-2.75 17.57-8.55 18.23c-4.28.5-8.43-3.23-10.75-9 2.7 8 8.18 13.29 13.82 12.64 7.15-.82 11.86-10.87 10.53-22.45s-8.24-20.3-15.35-19.48z" fill="#fff"/><path d="M364.86 108.52l9.26-1.63c3.07-.54 4.3 1.68 4.45 3.6s-10.95 8.7-10.95 8.7l-6-2.37zM365 125l9.29-1.44c3.08-.48 4.26 1.76 4.37 3.69s-11.12 8.48-11.12 8.48l-5.95-2.49z" fill="#9f663f"/></g><path d="M86.05 21.97l2.49 7.34 7.35 2.49-7.35 2.5-2.49 7.34-2.49-7.34-7.35-2.5 7.35-2.49z" fill="#fbbebe"/><path d="M189.54 58.7h21v104.63h-21z" fill="#fff"/></svg>