<svg xmlns="http://www.w3.org/2000/svg" xmlns:xlink="http://www.w3.org/1999/xlink" width="1920" height="1080" viewBox="0 0 1920 1080"><defs><style>.a{clip-path:url(#b);}.b{fill:#9fd789;}.c{fill:#231f20;}.d{fill:#d52b27;}.e{fill:#fff;}.f{fill:#e8f1d1;}.g{fill:#7e4b35;}.h{fill:#5fb146;}.i{fill:#3e9845;}.j{fill:#074b32;}.k{fill:#f99999;}.l{fill:#d63b3b;}.m{fill:#dfa47c;}.n{fill:#cef6c1;}</style><clipPath id="b"><rect width="1920" height="1080"/></clipPath></defs><g id="a" class="a"><rect class="n" width="1920" height="1080"/><g transform="translate(50.394 2.097)"><path class="b" d="M273.687,284.877l10.423,22.761a264.9,264.9,0,0,1,24.463,111.252v25.739l-7.871,31.7A14.763,14.763,0,0,1,286.45,487.6l-6.382,25.739H456.412L450.031,487.6a14.764,14.764,0,0,1-14.252-11.274l-7.871-31.695V418.889a264.19,264.19,0,0,1,24.463-111.252l10.423-22.761A381.2,381.2,0,0,0,497.68,125.55V44.5a16.7,16.7,0,0,0-16.8-16.8H255.606a16.7,16.7,0,0,0-16.8,16.8v81.258A376.99,376.99,0,0,0,273.687,284.877Z" transform="translate(214.107 31.336)"/><path class="c" d="M497.991,75.728v1.489A129.549,129.549,0,0,1,238.9,75.728v-.851A130.329,130.329,0,0,1,263.15,0H473.741a131.373,131.373,0,0,1,24.25,75.728Z" transform="translate(214.222 0.113)"/><path class="d" d="M421.2,121.15l-34.035,33.822a18.658,18.658,0,0,0-19.357-4.467A79.021,79.021,0,0,1,264.427,59.036a76.522,76.522,0,0,1,2.553-9.36,18.743,18.743,0,0,0-4.68-19.357L292.931.113h8.509a18.951,18.951,0,0,0,8.3,1.914A14.72,14.72,0,0,0,315.692.964C316.756.538,317.607.325,318.67-.1h46.16A77.938,77.938,0,0,1,397.8,19.683a79.424,79.424,0,0,1,21.485,39.14,81.966,81.966,0,0,1-2.553,42.969A18.241,18.241,0,0,0,421.2,121.15Z" transform="translate(240.598)"/><path class="b" d="M491.285,276.533,257.933,509.885a33.894,33.894,0,0,1-47.862,0L59.041,358.855a33.894,33.894,0,0,1,0-47.862L292.394,77.641a33.894,33.894,0,0,1,47.862,0l151.03,151.03A33.894,33.894,0,0,1,491.285,276.533Z" transform="translate(0.338 76.48)"/><path class="e" d="M58.741,280.594,292.094,47.241a33.894,33.894,0,0,1,47.862,0l151.03,151.03a33.894,33.894,0,0,1,0,47.862L257.633,479.485a33.894,33.894,0,0,1-47.862,0L58.741,328.455A33.894,33.894,0,0,1,58.741,280.594Z" transform="translate(0 42.213)"/><path class="f" d="M384.934,199.944,238.8,53.806a10.144,10.144,0,0,0-14.465,0l-97.425,97.425a10.144,10.144,0,0,0,0,14.465L273.044,311.834a10.144,10.144,0,0,0,14.465,0l97.425-97.425A10.543,10.543,0,0,0,384.934,199.944Z" transform="translate(84.567 57.346)"/><path class="g" d="M225.809,373.434l97.425-97.425a10.144,10.144,0,0,0,0-14.465L177.1,115.406a10.144,10.144,0,0,0-14.465,0L65.206,212.831a10.144,10.144,0,0,0,0,14.465L211.344,373.434A10.543,10.543,0,0,0,225.809,373.434Z" transform="translate(15.02 126.78)"/><path class="c" d="M210.278,357.8,68.607,216.132a3.084,3.084,0,0,1,0-4.467l92.958-92.958a3.082,3.082,0,0,1,4.467,0L230.7,183.374a35.28,35.28,0,0,1,10.423,24.888V316.748A34.41,34.41,0,0,1,230.7,341.636L214.745,357.59A2.931,2.931,0,0,1,210.278,357.8Z" transform="translate(21.191 132.839)"/><path class="h" d="M154.8,148.542a29.868,29.868,0,0,1,29.781-29.781,26.915,26.915,0,0,1,12.338,2.765,16.5,16.5,0,0,0,19.783-4.893,50.166,50.166,0,0,1,41.693-18.081c25.1,1.489,45.734,22.548,46.585,47.649a49.8,49.8,0,0,1-88.491,33.61,15.217,15.217,0,0,0-8.3-5.318,16.038,16.038,0,0,0-11.274,1.064A29.621,29.621,0,0,1,154.8,148.542Z" transform="translate(119.425 111.087)"/><path class="i" d="M179.9,149.473l23.4-23.4a18.232,18.232,0,0,1,25.952,0l32.759,32.759a49.779,49.779,0,0,1-73.813-4.042A18.533,18.533,0,0,0,179.9,149.473Z" transform="translate(147.718 136.108)"/><path class="h" d="M201.836,132.884a14.509,14.509,0,0,1-20.634,0l-10.636-10.423a29.292,29.292,0,0,1,.638-42.118,29.754,29.754,0,0,1,40.2,0,29.289,29.289,0,0,1,.638,42.118Z" transform="translate(127.483 81.862)"/><path class="i" d="M197.27,114.849l10.423-10.423-12.55-12.55a11.946,11.946,0,0,0-16.592,0L166,104.426l10.423,10.423A15.17,15.17,0,0,0,197.27,114.849Z" transform="translate(132.05 99.897)"/></g><g transform="translate(161.374 330.134)"><path class="b" d="M1858.613,634.664v68.027l-490.8-512.6,12.935-12.7ZM1510.575,748.2h-55.092L1140.5,418.847l12.935-12.7Z" transform="translate(0.14 68.23)"/><circle class="j" cx="148.509" cy="148.509" r="148.509" transform="translate(1222.319 211.617)"/><circle class="e" cx="125.035" cy="125.035" r="125.035" transform="translate(1245.794 235.091)"/><path class="k" d="M1228.623,308.245l90.782-91.022a64.193,64.193,0,0,0-109.7,45.271,63.408,63.408,0,0,0,18.923,45.75Z" transform="translate(96.695 97.392)"/><path class="j" d="M1217.6,270.711a64.19,64.19,0,0,0,91.022,0L1263.111,225.2Z" transform="translate(107.718 134.926)"/><path class="l" d="M1282.011,297.222a64.189,64.189,0,0,0,0-91.022L1236.5,251.711Z" transform="translate(134.089 108.415)"/><path class="m" d="M1858.752,586V654.03L1367.715,141.2l12.935-12.7ZM1632.875,816.432h-65.392L1140.4,369.947l12.935-12.7Z"/></g></g></svg>