<svg viewBox="0 0 411 199" xmlns="http://www.w3.org/2000/svg"><clipPath id="a"><path d="M444.28.46h410.4V199h-410.4z"/></clipPath><clipPath id="b"><path d="M146.58 92.73h99.5v91.9a13.82 13.82 0 0 1-13.82 13.82H160.4a13.82 13.82 0 0 1-13.82-13.82v-91.9z"/></clipPath><path d="M-2.88-1.84h416.76v203.16H-2.88z" fill="#b9df93"/><g clip-path="url(#a)" fill="#392151"><path d="M481.42 127.01l2.22 30.42-73.69 13.31 1.29-44.42z"/><path d="M476.62 135.91l3.51 36.75-73.68 13.31v-50.75z"/></g><path d="M146.58 92.73h99.5v91.9a13.82 13.82 0 0 1-13.82 13.82H160.4a13.82 13.82 0 0 1-13.82-13.82v-91.9z" fill="#fff"/><circle cx="196.33" cy="74.07" fill="#392151" r="6.22"/><path d="M140.36 111.38h12.44v6.22h-18.66a6.22 6.22 0 0 1 6.22-6.22zm99.5 0h12.44a6.22 6.22 0 0 1 6.22 6.22h-18.66v-6.22z" fill="#392151"/><g clip-path="url(#b)" fill="#d1edc8"><path d="M196.33 61.63h31.1v161.69h-31.1zm-24.87 0h12.44v161.69h-12.44z"/></g><g fill="#5fb709"><path d="M20.62 122.39s0 10 5 14.94 14.94 5 14.94 5 0-10-5-14.94-14.94-5-14.94-5zm41.82 0s0 10-5 14.94-14.94 5-14.94 5 0-10 5-14.94 14.94-5 14.94-5zm-41.82-21.46s0 10 5 14.95 14.94 5 14.94 5 0-10-5-14.94-14.94-5.01-14.94-5.01zm41.82 0s0 10-5 14.95-14.94 5-14.94 5 0-10 5-14.94 14.94-5.01 14.94-5.01z"/><path d="M40.46 100.58h2.26v43.28h-2.26z"/></g><circle cx="103.54" cy="142.88" fill="#a23f8c" r="28.46"/><circle cx="103.54" cy="142.88" fill="#f3e0ee" r="23.62"/><path d="M103.54 157a14.15 14.15 0 1 1 14.15-14.15A14.17 14.17 0 0 1 103.54 157zm0-25a10.9 10.9 0 1 0 10.89 10.89A10.9 10.9 0 0 0 103.54 132z" fill="#c57ab8"/><path d="M131.34 142.88a55.77 55.77 0 0 1-111.54 0zM295.4 47.39a7.05 7.05 0 0 1-7-7V7.09a7.06 7.06 0 0 1 14.11 0v33.25a7.06 7.06 0 0 1-7.11 7.05zm0-44.28a4 4 0 0 0-4 4v33.23a4 4 0 1 0 8 0V7.09a4 4 0 0 0-4-3.98z" fill="#392151"/><path d="M297.91 119.55a7.15 7.15 0 0 1-4-1.16c-5.81-3.77-6.19-15.07-5.9-21.47.35-7.86 2-16.6 3.46-24.32 1.28-6.77 2.38-12.61 2.38-16.44v-27.6h3.07v27.6c0 4.12-1.13 10.09-2.44 17-1.44 7.61-3.06 16.25-3.41 23.88-.44 9.64 1.25 16.65 4.51 18.77 1.53 1 3.45.89 5.86-.32 13.86-6.92 8.28-23.36 2.88-39.26-2.55-7.49-4.95-14.56-4.95-20.08V28.56h3.07v27.6c0 5 2.32 11.85 4.78 19.1 2.76 8.12 5.61 16.51 5.92 24.1.37 9-3 15.23-10.32 18.89a11 11 0 0 1-4.91 1.3z" fill="#fff"/><path d="M292.8 119.55a11 11 0 0 1-4.92-1.3c-7.32-3.66-10.69-9.84-10.32-18.89.31-7.59 3.16-16 5.92-24.1 2.46-7.25 4.78-14.09 4.78-19.1v-27.6h3.07v27.6c0 5.52-2.41 12.59-4.95 20.08-5.4 15.9-11 32.34 2.87 39.26 2.42 1.21 4.34 1.32 5.87.32 3.26-2.12 4.95-9.13 4.51-18.77-.35-7.63-2-16.26-3.42-23.88-1.3-6.92-2.43-12.89-2.43-17V28.56h3.07v27.6c0 3.83 1.1 9.67 2.38 16.44 1.46 7.72 3.11 16.46 3.46 24.32.29 6.4-.09 17.7-5.9 21.47a7.18 7.18 0 0 1-3.99 1.16z" fill="#fff"/><path d="M287.96 9.7h14.88v42.49h-14.88zM152.8 80.29h87.07a12.44 12.44 0 0 1 12.43 12.44H140.36a12.44 12.44 0 0 1 12.44-12.44z" fill="#392151"/></svg>